<svg xmlns="http://www.w3.org/2000/svg" data-name="Layer 1" viewBox="0 0 1024 512"><path d="M922.58 379.88H769.21v-92.66h137.11V221.1H769.21v-88.32h150.66V66.66h-151v-.27c-7.59-1.07-16.16-2-25.75-2.7s-19.41-1.27-29.52-1.64-20-.63-29.54-.81-18.14-.24-25.73-.24q-50.38 0-86.16 14.09t-58 39.56c-1.37 1.58-2.7 3.19-4 4.82-1.31-1.63-2.64-3.25-4-4.82q-22.23-25.48-58-39.56T362 61q-11.39 0-25.75.26t-29.54.81q-15.16.55-29.52 1.64c-9.59.73-18.16 1.62-25.75 2.7v.27H100.58v66.12h150.66v88.3H114.13v66.12h137.11v92.66H100.58V446h150.89v.27c4.7.71 11.74 1.36 21.13 1.89s19.23 1.09 29.54 1.64 20.23 1 29.8 1.36 17.25.53 23 .53q54.72 0 91.85-16.79t59.88-44.44c1.18-1.44 2.33-2.9 3.46-4.37 1.13 1.47 2.28 2.93 3.46 4.37q22.77 27.63 59.88 44.44t91.85 16.79q8.68 0 23-.53t29.8-1.36q15.45-.82 29.54-1.64c9.39-.53 16.44-1.17 21.13-1.89V446h153.7zm-456.52-77.49q-4.86 24.12-17.06 42.54a88.77 88.77 0 0 1-33.06 29.54q-20.86 11.11-52.29 11.11c-1.82 0-4.51-.08-8.12-.28l-11.39-.53q-6-.27-11.1-.55a43.45 43.45 0 0 1-7.33-.81V129.25a150.69 150.69 0 0 1 18.16-1.62c8.14-.35 16.16-.55 24.11-.55q30.88 0 50.94 11.39a90.05 90.05 0 0 1 31.7 29.25 112 112 0 0 1 16 40.37 235.52 235.52 0 0 1 4.33 44.72 249 249 0 0 1-4.89 49.58zm228.58 81a43.46 43.46 0 0 1-7.33.81q-5.13.27-11.1.55l-11.39.53c-3.61.2-6.3.28-8.12.28q-31.43 0-52.29-11.11a88.77 88.77 0 0 1-33.06-29.54q-12.2-18.41-17.07-42.53a249 249 0 0 1-4.88-49.58 235.52 235.52 0 0 1 4.33-44.72 112 112 0 0 1 16-40.37 90.05 90.05 0 0 1 31.7-29.25q20-11.39 50.94-11.39c8 0 16 .2 24.11.55a150.69 150.69 0 0 1 18.16 1.62v119h-77.49v45l77.49 8.22v82z"/></svg>